<svg width="83" height="20" viewBox="0 0 83 20" fill="none" xmlns="http://www.w3.org/2000/svg">
<path d="M70.5924 7.0589H68.9422V13.6873C67.8771 14.4877 66.557 14.8779 65.2268 14.7828C64.1567 14.7578 63.2866 14.3326 63.2866 12.9769V12.2866H67.112V7.77927H61.6114V8.93986H65.4618V11.141H61.6114V12.5417C61.6114 15.108 63.0016 15.9384 65.1118 15.9434C66.597 15.9434 68.1921 15.4882 68.9422 14.8529V19.07H70.5924V11.8313H72.2876V10.5907H70.5924V7.0589Z" fill="#767676"/>
<path d="M78.1183 17.904C77.5782 17.9791 77.0782 17.6039 77.0031 17.0636C76.9931 16.9836 76.9931 16.8985 77.0031 16.8185V15.1176H75.323V16.4433C75.323 18.3042 76.3981 19.0746 78.4233 19.0746H82.8888V17.909H78.1233L78.1183 17.904Z" fill="#767676"/>
<path d="M81.1584 12.8368V15.6933H82.7936V7.0589H81.1584V11.6662C80.3584 12.4667 78.6582 12.7718 77.4881 12.7718C76.418 12.7718 75.5479 12.3716 75.5479 11.201V8.8198H79.4583V7.65921H73.8827V11.0409C73.8827 13.4171 75.3478 13.9324 77.3881 13.9324C78.7282 13.9674 80.0433 13.5822 81.1584 12.8368Z" fill="#767676"/>
<path d="M58.6362 7.0589H56.986V13.0319H58.6362V10.3906H60.3314V9.19999H58.6362V7.0589Z" fill="#767676"/>
<path d="M52.4855 12.8617C54.0007 12.7266 55.2058 11.526 55.3358 10.0102C55.1858 8.28436 53.6606 7.00871 51.9355 7.15878C50.4203 7.29385 49.2152 8.49446 49.0852 10.0102C49.2352 11.7361 50.7603 13.0118 52.4855 12.8617ZM50.6303 10.2804C50.6203 10.1903 50.6203 10.1003 50.6303 10.0102C50.5553 9.13479 51.2054 8.3694 52.0755 8.29436C52.9506 8.21932 53.7157 8.86965 53.7907 9.7401C53.8007 9.83014 53.8007 9.92019 53.7907 10.0102C53.8657 10.8857 53.2156 11.6511 52.3455 11.7261C51.4754 11.8011 50.7053 11.1508 50.6303 10.2804Z" fill="#767676"/>
<path d="M52.8305 17.0585V16.9134H58.6361V13.7368H51.1253V14.8574H56.9609V15.8179H51.1553V16.6183C51.1553 18.4842 52.1704 19.0695 53.6956 19.0695H58.7161V17.944H53.7006C53.0005 17.944 52.8355 17.6788 52.8355 17.0585H52.8305Z" fill="#767676"/>
<path d="M41.5743 0.710176C39.7741 -0.275326 37.3089 -0.40039 35.7137 1.40553C34.5936 2.60614 34.4086 4.40706 35.2637 5.80777C36.0838 7.12344 37.6939 7.71374 39.1691 7.24851C40.5692 6.86831 41.3443 5.13743 40.4392 3.97184C39.9242 3.29649 38.9891 3.1164 38.264 3.54662C37.919 3.75673 37.7839 4.18695 37.944 4.55714C38.054 4.77224 38.279 4.91232 38.524 4.91232C38.639 4.90231 38.754 4.8723 38.859 4.82227C39.4441 4.61216 39.7141 5.52263 39.2241 5.78776C39.1291 5.84779 39.0241 5.88781 38.9141 5.91783C37.974 6.20798 36.9538 5.8528 36.4038 5.03238C35.9337 4.16193 36.0688 3.08639 36.7388 2.35601C37.7189 1.25045 39.5141 1.30548 40.7192 2.04586C41.9294 2.78623 42.8895 4.33202 41.9744 6.4531C41.2393 8.15897 39.0541 8.65422 36.8988 8.65922C36.5238 8.65922 36.1488 8.63421 35.7787 8.58919C36.0138 8.74427 36.2488 8.90435 36.4788 9.05943C37.0589 9.44462 37.6339 9.84483 38.199 10.25C38.204 10.25 38.214 10.25 38.219 10.25C38.214 10.25 38.204 10.25 38.199 10.255C37.6339 9.84483 37.0589 9.44963 36.4788 9.06443C36.2488 8.90935 36.0138 8.74927 35.7787 8.59419C32.2784 8.20899 27.3679 6.21798 24.8576 5.17245C24.4125 5.33753 23.7875 5.56265 23.1074 5.80277C23.2574 5.89282 23.4024 5.98786 23.5525 6.08291C23.4024 5.99287 23.2574 5.89282 23.1074 5.80277C21.8323 6.27801 20.5271 6.67822 19.207 7.01339L18.877 7.07842C16.3867 7.58368 15.2666 7.67872 13.1264 7.35856C12.7013 7.33355 12.2713 7.28352 11.8512 7.20348C8.74091 6.71323 1.79519 5.38256 0 8.50414C5.52058 7.70374 10.5961 9.47464 14.3265 11.3306C16.0317 12.181 17.4568 13.0465 18.5119 13.6968C19.677 14.4822 20.8972 15.1775 22.1723 15.7678C21.3022 16.5482 20.5621 17.4637 19.9771 18.4792C19.9271 18.5443 19.9021 18.6193 19.8971 18.6993C19.8971 19.4047 22.4823 20 24.9526 20C25.2576 20 25.5677 19.99 25.8727 19.975C28.0179 19.8499 30.0031 19.3147 30.0031 18.6993C30.0031 18.6193 29.9731 18.5443 29.9231 18.4792C29.3131 17.4237 28.538 16.4782 27.6229 15.6778C28.323 15.3426 29.003 14.9724 29.6581 14.5622C29.9931 14.3671 31.0732 13.7868 32.2684 13.1665C32.1633 13.0665 32.0583 12.9664 31.9533 12.8664C31.9533 12.8664 31.9533 12.8664 31.9633 12.8664C32.0683 12.9664 32.1734 13.0665 32.2834 13.1665C33.6285 12.4712 35.1187 11.7258 35.8437 11.4206C36.7538 11.0654 37.6889 10.7803 38.639 10.5602C39.3791 10.3801 40.1042 10.155 40.8143 9.87484C42.0494 9.35958 43.0445 8.39909 43.6045 7.18347C44.6947 4.82227 43.8146 2.02084 41.5743 0.705173V0.710176ZM24.5126 15.9079C24.5726 15.9079 24.6326 15.9179 24.6926 15.9179C24.6326 15.9179 24.5776 15.9079 24.5176 15.9079H24.5126ZM23.8175 14.2571C23.8675 14.3721 23.9225 14.4922 23.9725 14.6073C24.0975 14.8924 24.2125 15.1775 24.3275 15.4677L24.5076 15.9079C24.4525 15.7578 24.3875 15.6128 24.3275 15.4677C24.2125 15.1775 24.0925 14.8924 23.9725 14.6073C23.9175 14.4922 23.8675 14.3721 23.8175 14.2571C23.6925 13.9819 23.5675 13.7068 23.4374 13.4317C23.3774 13.3016 23.3124 13.1765 23.2474 13.0465C23.1224 12.7913 22.9924 12.5312 22.8574 12.2761C22.7824 12.131 22.6974 11.9909 22.6224 11.8458C22.4973 11.6107 22.3673 11.3806 22.2323 11.1505C22.1373 10.9904 22.0373 10.8303 21.9373 10.6702C21.8123 10.4651 21.6873 10.26 21.5522 10.0549C21.4372 9.86984 21.3072 9.69475 21.1822 9.51466C21.0572 9.33457 20.9472 9.16448 20.8222 8.99439C20.6672 8.77928 20.5021 8.56918 20.3371 8.35907C20.2371 8.23401 20.1421 8.09894 20.0421 7.97888C19.8671 7.76877 19.687 7.56367 19.507 7.35856C19.432 7.37857 19.357 7.39358 19.282 7.40859L19.317 7.39858H19.282C19.352 7.39358 19.427 7.37357 19.507 7.35856C19.687 7.56367 19.8721 7.76377 20.0421 7.97888C20.1421 8.10394 20.2371 8.23401 20.3371 8.35907C20.5021 8.56918 20.6672 8.77928 20.8222 8.99439C20.9472 9.16448 21.0622 9.33957 21.1822 9.51466C21.3022 9.68975 21.4322 9.87484 21.5522 10.0549C21.6873 10.255 21.8073 10.4651 21.9373 10.6702C22.0323 10.8303 22.1373 10.9904 22.2323 11.1505C22.3673 11.3806 22.4923 11.6157 22.6224 11.8458C22.7024 11.9909 22.7824 12.131 22.8574 12.2761C22.9924 12.5312 23.1174 12.7863 23.2474 13.0415C23.3124 13.1715 23.3774 13.2966 23.4374 13.4267C23.5675 13.6968 23.6925 13.9719 23.8175 14.2521V14.2571ZM20.1821 7.18848C20.1821 7.18848 20.1821 7.18848 20.1871 7.18848C20.1871 7.18848 20.1871 7.18848 20.1821 7.18848ZM18.962 7.47862L19.322 7.40358L19.287 7.41359L18.962 7.48363V7.47862ZM18.7369 13.3466C17.5018 12.5862 16.1617 11.7858 14.5165 10.9654C14.3515 10.8804 14.1815 10.8053 14.0115 10.7203C14.0415 10.7803 14.0715 10.8403 14.1065 10.9004C14.0715 10.8353 14.0365 10.7653 14.0015 10.7003C14.0015 10.7053 14.0115 10.7153 14.0115 10.7203C14.1815 10.8003 14.3465 10.8804 14.5165 10.9654C16.1617 11.7858 17.5018 12.5862 18.7369 13.3466L19.482 13.8068C19.9671 14.147 20.4771 14.4522 21.0022 14.7323C20.4771 14.4522 19.9721 14.147 19.482 13.8118L18.7369 13.3516V13.3466ZM38.509 3.88179C39.0541 3.58664 39.7391 3.72671 40.1192 4.22196C39.7391 3.73171 39.0591 3.58664 38.514 3.88179H38.509ZM40.9393 1.69068C39.6291 0.890268 37.6039 0.755199 36.4288 2.08087C35.6387 2.95132 35.4887 4.22697 36.0588 5.25249C36.7088 6.21798 37.914 6.6482 39.0291 6.31303C39.1741 6.27301 39.3091 6.21798 39.4391 6.14294C39.7291 5.97786 39.9092 5.6677 39.8992 5.33253C39.8992 5.18245 39.8692 5.03238 39.8091 4.89731C39.7891 4.84228 39.7591 4.79726 39.7291 4.75223C39.7591 4.79726 39.7891 4.84728 39.8091 4.90231C39.8692 5.03738 39.9042 5.18746 39.8992 5.33753C39.9092 5.6727 39.7291 5.98286 39.4391 6.14795C39.3141 6.22298 39.1741 6.28301 39.0291 6.31803C37.914 6.6532 36.7088 6.22298 36.0588 5.25749C35.4887 4.22697 35.6387 2.95132 36.4288 2.08087C37.5989 0.755199 39.6291 0.890268 40.9393 1.69068C41.6193 2.10589 42.2294 2.74621 42.5394 3.57664C42.2244 2.74621 41.6143 2.10589 40.9393 1.69068ZM25.6827 5.95785C25.3726 5.83278 25.0876 5.71272 24.8526 5.61767C25.0926 5.71773 25.3726 5.83278 25.6827 5.95785Z" fill="#767676"/>
<path d="M25.9128 2.86615C25.9128 2.28585 25.4377 1.81061 24.8577 1.81061C24.2776 1.81061 23.8026 2.28085 23.8026 2.86615C23.8626 3.73659 24.2376 4.55701 24.8577 5.16732C25.4777 4.55701 25.8528 3.73659 25.9128 2.86615Z" fill="#767676"/>
</svg>
