<svg width="83" height="20" viewBox="0 0 83 20" fill="none" xmlns="http://www.w3.org/2000/svg">
<path d="M62.377 0.0149231C62.3566 0.0149231 62.3361 0.0149231 62.3156 0.0149231C59.62 0.0149231 57.2299 1.01716 55.2068 2.99182C53.2712 4.88266 52.2876 7.27461 52.2839 10.1006C52.2802 12.7813 53.3998 15.4024 55.3577 17.2895C57.2578 19.1226 59.728 20.0783 62.3174 19.9814C62.446 19.987 62.5745 19.9888 62.703 19.9888C65.149 19.9888 67.4646 19.0499 69.2604 17.3193C71.2332 15.4192 72.3603 12.7776 72.3547 10.0708C72.3472 7.24667 71.3655 4.85658 69.4337 2.96388C67.4497 1.02275 65.0764 0.0298262 62.377 0.0149231ZM71.3897 10.0615C71.4065 12.5112 70.4676 14.8081 68.7463 16.5332C67.0399 18.2433 64.7709 19.1841 62.3547 19.1841C62.3416 19.1841 62.3267 19.1841 62.3137 19.1841C57.2373 19.1617 53.2452 15.1621 53.2265 10.0783C53.2172 7.59689 54.1617 5.27573 55.883 3.5451C57.5857 1.83311 59.8659 0.888619 62.3007 0.886756H62.3118C64.7485 0.886756 67.0399 1.84801 68.7668 3.59167C70.4881 5.33348 71.4195 7.63042 71.3897 10.0596V10.0615Z" fill="#767676"/>
<path d="M10.0932 0.0149469C7.37333 -0.00181912 4.96089 1.00042 2.92289 2.99185C0.987342 4.88082 0.00373505 7.27277 9.26942e-06 10.1006C-0.00371651 12.7813 1.11588 15.4024 3.07378 17.2895C4.88637 19.0369 7.21871 19.987 9.674 19.987C9.79323 19.987 9.91245 19.9851 10.0335 19.9796C10.1621 19.9851 10.2888 19.987 10.4154 19.987C12.7385 19.987 14.9646 19.1301 16.7213 17.5541L16.7344 17.5429V16.2482L16.6654 16.3208C14.9534 18.1521 12.5373 19.1971 10.0298 19.1841C4.95344 19.1617 0.961261 15.1621 0.942632 10.0783C0.933318 7.59692 1.8778 5.27575 3.59912 3.54513C5.30366 1.83499 7.58198 0.890506 10.0168 0.888643H10.028C12.528 0.888643 14.9478 1.9449 16.6654 3.78544L16.7344 3.85809V2.57829L16.7213 2.56711C14.8305 0.88678 12.6006 0.0279871 10.0932 0.0149469Z" fill="#767676"/>
<path d="M44.1636 0.0149231C44.1431 0.0149231 44.1226 0.0149231 44.1021 0.0149231C41.4065 0.0149231 39.0164 1.01716 36.9933 2.99182C35.0577 4.88266 34.0741 7.27461 34.0704 10.1006C34.0667 12.7813 35.1863 15.4024 37.1442 17.2895C38.9568 19.0369 41.2891 19.987 43.7444 19.987C43.8636 19.987 43.9829 19.9851 44.1039 19.9795C44.2325 19.9851 44.3592 19.987 44.4858 19.987C46.8089 19.987 49.035 19.1301 50.7917 17.554L50.8048 17.5429V16.2482L50.7358 16.3208C49.0332 18.1427 46.63 19.1841 44.1393 19.1841C44.1263 19.1841 44.1133 19.1841 44.1002 19.1841C39.0238 19.1617 35.0317 15.1621 35.013 10.0783C35.0037 7.59689 35.9482 5.27573 37.6695 3.5451C39.3722 1.83311 41.6524 0.888619 44.0872 0.886756H44.0984C46.5984 0.886756 49.0183 1.94302 50.7358 3.78355L50.8048 3.85621V2.5764L50.7917 2.56522C48.899 0.886756 46.6691 0.0279633 44.1636 0.0149231Z" fill="#767676"/>
<path d="M26.7921 9.50822H20.8662V0.0149231H19.8808V19.9888H20.8662V10.4937H26.7921V19.9888H27.7776V0.0149231H26.7921V9.50822Z" fill="#767676"/>
<path d="M31.9858 0.0149231H31.0004V19.9888H31.9858V0.0149231Z" fill="#767676"/>
<path d="M82.8446 19.8771C82.5689 19.4486 81.9579 18.4799 81.5537 17.839L81.2258 17.3193C80.1509 15.6166 77.7571 11.794 77.1945 10.8923C77.6733 10.8793 78.152 10.7861 78.614 10.6949L78.6326 10.6911C81.1494 10.2012 82.4534 7.29881 82.2187 4.89195C82.0976 3.65872 81.5797 2.51118 80.7601 1.6617C80.6911 1.59091 80.6204 1.52012 80.5458 1.45306C80.5123 1.42325 80.4788 1.39717 80.4452 1.37481C80.4173 1.35432 80.3875 1.33383 80.3614 1.30961C80.2329 1.19598 80.095 1.08607 79.9479 0.98547C79.6703 0.795455 79.3573 0.63152 79.0201 0.495529C78.7984 0.407973 78.5619 0.331595 78.3197 0.270119C77.649 0.0987332 76.8685 0.0149031 75.9352 0.0149031C75.6595 0.0149031 75.3838 0.0111773 75.1062 0.00745157C74.8212 0.00372578 74.5361 0 74.253 0H74.1748V2.97504L74.1785 3.01043V6.56483C74.1785 11.0134 74.1785 15.6334 74.1748 19.7914C74.1748 19.8398 74.1766 19.8845 74.1803 19.9273L74.1878 19.9981H74.9479L74.9572 19.9311C74.9646 19.8826 74.9665 19.8342 74.9665 19.782C74.959 15.0708 74.9553 9.69262 74.9534 4.94784V0.814083H76.0861C78.7314 0.761923 80.7992 2.07899 81.3432 4.16543C81.6282 5.25522 81.4922 6.75298 81.0209 7.72727C80.6259 8.54136 80.0578 9.20268 79.3741 9.6386C78.7277 10.0503 77.8894 10.2478 76.8089 10.2385C76.7027 10.2385 76.5946 10.2366 76.4885 10.2347C76.3376 10.2329 75.9259 10.2329 75.9259 10.2329C75.9259 10.2329 75.9538 10.3241 76.1252 10.6017C79.1487 15.4862 81.1979 18.8115 81.8983 19.9627L81.9207 20H82.9229L82.8446 19.8789V19.8771Z" fill="#767676"/>
</svg>
