<svg width="71" height="20" viewBox="0 0 71 20" fill="none" xmlns="http://www.w3.org/2000/svg">
<path d="M43.4114 19.7917C41.5131 19.3887 39.9789 18.3095 39.3028 16.9183C39.0037 16.3202 38.9647 16.0732 38.9647 15.111C38.9647 13.7328 39.2508 13.0307 40.1609 12.1726C41.032 11.3535 42.1372 10.8594 44.9326 10.0533C48.2481 9.09112 48.7812 8.80507 48.8072 8.02496C48.8202 7.49188 48.4822 7.03681 47.8061 6.72476C46.9739 6.3477 45.1017 6.3477 44.3865 6.72476C43.6844 7.10182 43.3204 7.53088 43.1514 8.19398L43.0083 8.76607L41.2921 8.74006C40.3429 8.74006 39.5368 8.68806 39.4978 8.63605C39.3418 8.46702 39.6538 6.93279 39.9659 6.2957C40.59 5.02151 41.3701 4.38441 42.9303 3.83833C44.2175 3.39626 46.9999 3.27924 48.4302 3.59129C50.3414 4.02036 51.7066 4.9825 52.3047 6.3217C52.7468 7.33585 52.8898 8.93509 52.8118 12.1596C52.7598 14.2009 52.6948 15.15 52.5388 15.6831C51.7717 18.4785 49.3923 19.9607 45.7518 19.9347C44.9326 19.9347 43.8795 19.8437 43.4114 19.7397V19.7917ZM46.6229 16.8533C47.403 16.6192 48.1701 15.9691 48.5212 15.241C48.7292 14.799 48.8072 14.3829 48.8462 13.2647C48.8852 12.4846 48.8852 11.8475 48.8462 11.8475C48.5212 11.8475 44.3605 13.1737 43.9835 13.3948C43.2814 13.8108 42.9563 14.3699 42.9563 15.163C42.9563 15.7351 43.0083 15.8391 43.4244 16.2682C43.6844 16.5282 44.0875 16.8013 44.3215 16.8663C44.9456 17.0613 45.9078 17.0483 46.6099 16.8403L46.6229 16.8533ZM65.5277 19.8177C64.7866 19.6097 64.0845 19.1546 63.6554 18.5955C63.2047 17.9975 62.9793 14.669 62.9793 8.61004V0.210785L64.3315 0.249791C65.4627 0.288797 65.7357 0.327802 66.0218 0.548836C66.5419 0.938894 66.7889 1.54999 66.8929 2.70716L66.9839 3.76032L68.5572 3.79932L70.1304 3.83833V4.60544C70.1304 6.11367 69.4153 6.78977 67.8161 6.78977H66.9189V16.2682L67.218 16.5932C67.387 16.7753 67.725 16.9443 67.9721 16.9963C68.4272 17.0743 69.5583 16.9963 69.9354 16.8533C70.1174 16.7883 70.1304 16.9313 70.1044 18.2445L70.0654 19.7007L69.3243 19.8567C68.3621 20.0518 66.2818 20.0518 65.5147 19.8307L65.5277 19.8177ZM35.5062 19.5707C34.8951 19.3497 34.4661 18.9466 34.18 18.3355C33.972 17.8804 33.959 17.4384 33.946 12.8357C33.946 7.33585 33.946 7.29685 33.1659 6.73776C32.6328 6.3477 31.2806 6.3087 30.5655 6.65975C29.5903 7.12782 29.6163 6.94579 29.6163 13.6938V19.6357H25.6637V13.6418C25.6637 6.90679 25.6897 7.12782 24.7666 6.68576C23.7005 6.16568 22.2442 6.41271 21.6591 7.20583C21.4121 7.54388 21.3991 7.69991 21.3731 13.4468C21.3601 16.6843 21.3471 19.4017 21.3471 19.4927C21.3471 19.6097 20.866 19.6487 19.3708 19.6487H17.3945V13.8888C17.3945 7.95995 17.4725 6.75077 17.8756 5.95765C18.2136 5.29455 19.0848 4.48843 19.8389 4.12437C21.6982 3.24024 25.3517 3.22724 27.068 4.09837L27.536 4.3324L28.3291 4.02036C29.4213 3.57829 30.1754 3.46127 31.7357 3.46127C34.128 3.46127 35.5192 3.91634 36.6764 5.06051C37.8726 6.24369 37.8336 5.98365 37.8726 13.3688L37.9116 19.7527H36.9494C36.4164 19.7527 35.7663 19.6617 35.5062 19.5707ZM54.203 13.2777C54.203 9.49418 54.255 6.65975 54.333 6.26969C54.5801 4.94349 55.4512 4.02036 56.8164 3.6433C57.6355 3.40926 59.5858 3.38326 60.938 3.59129L61.8742 3.73431V6.65975L61.4711 6.56874C61.2501 6.51673 60.639 6.47772 60.1189 6.47772C59.3518 6.47772 59.1048 6.52973 58.8187 6.73776C58.1556 7.23184 58.1686 7.14082 58.1556 13.6158V19.6357H54.203V13.2907V13.2777Z" fill="#767676"/>
<path d="M5.73176 19.8178C4.0025 19.4798 3.10537 19.0247 2.02621 17.9715C1.09007 17.0484 0.465973 15.8652 0.166928 14.435C-0.106113 13.0958 -0.0281015 6.45182 0.283945 5.37266C0.817025 3.51338 1.9742 1.96615 3.45642 1.13402C4.76962 0.379909 5.92679 0.0808636 7.77307 0.0158539C9.60634 -0.0491558 10.8155 0.0808636 11.9987 0.496926C14.8721 1.49808 16.5624 3.96845 16.1723 6.62084C15.7953 9.19523 14.066 10.7035 10.2694 11.7696C8.03311 12.3937 5.80977 13.0828 5.49773 13.2518C4.6396 13.6939 4.19753 14.357 4.35355 14.9681C4.6396 16.0733 5.66675 16.6713 7.44802 16.7624C9.68435 16.8794 10.9325 16.1383 11.4526 14.383L11.5566 14.0059L13.676 13.9669L15.7953 13.9279L15.7173 14.266C15.3402 16.0343 14.7941 17.1394 13.819 18.0366C12.4798 19.2717 10.7895 19.8438 8.18913 19.9218C7.10997 19.9608 6.29085 19.9218 5.71876 19.8048L5.73176 19.8178ZM6.12182 9.79332C9.28129 8.84418 9.71036 8.71416 10.1784 8.46712C11.4916 7.80402 12.0507 6.9719 11.9337 5.84073C11.8297 4.82657 11.2966 4.09847 10.3084 3.59139C9.41131 3.13632 7.64305 3.05831 6.6419 3.43537C5.44572 3.89043 4.60059 4.9956 4.32755 6.46482C4.18453 7.25794 4.14552 10.0144 4.27554 10.1574C4.41856 10.3004 4.58759 10.2614 6.12182 9.80632V9.79332Z" fill="#767676"/>
</svg>
