<svg width="34" height="25" viewBox="0 0 34 25" fill="none" xmlns="http://www.w3.org/2000/svg">
<path d="M6.21028 13.9251C6.45181 13.8736 6.48581 14.7247 6.14127 15.3718C6.14127 15.3718 5.97425 13.9816 6.21028 13.9251ZM7.43692 14.9317C7.37041 14.9317 7.37041 15.0513 7.37041 15.0513C7.37041 15.0513 7.21689 16.5304 6.65533 17.0935C6.65533 17.0935 6.4128 17.4141 6.26078 17.072C6.10877 16.7325 6.09226 16.2209 6.10877 15.7813C6.10877 15.7813 6.67183 15.1518 6.68833 14.4527C6.70483 13.7551 6.34529 13.334 5.89024 13.0915C5.89024 13.0915 5.75472 13.0075 5.73672 13.2485C5.71922 13.4851 5.41118 14.4877 5.59721 16.2724C5.59721 16.2724 5.25917 17.121 5.05564 17.1385C4.84962 17.1625 4.52758 15.6803 5.30967 14.7242C5.30967 14.7242 5.46169 14.5887 5.34368 14.3697C5.22566 14.1496 4.87112 13.5201 4.87112 13.5201C4.87112 13.5201 4.6786 13.349 4.62959 13.5526C4.57809 13.7551 3.8465 15.2873 3.64398 15.8839C3.64398 15.8839 3.50846 13.8401 4.01502 12.3494C4.01502 12.3494 4.15554 12.1459 3.99752 11.9434C3.8465 11.7408 3.35645 11.2108 3.35645 11.2108C3.35645 11.2108 3.14792 11.1268 3.19943 11.3123C3.24993 11.4973 3.40795 13.7216 3.09742 15.5063C3.09742 15.5063 2.65886 17.1265 2.29932 17.11C2.29932 17.11 2.04529 17.277 2.14581 14.4367C2.14581 14.4367 2.1283 14.2672 2.41584 14.2332C2.70887 14.2007 3.01291 14.1826 3.01291 14.1826L3.02941 13.9801H2.24782C2.24782 13.9801 2.24782 13.3655 2.28182 13.2145C2.31583 13.0575 2.24782 12.9885 2.24782 12.9885L1.82577 12.4819C1.82577 12.4819 1.53273 12.3484 1.56674 12.5659C1.60174 12.786 1.65075 12.668 1.65075 12.9215V13.9796L0.345096 13.9971C0.345096 13.9971 0.227083 13.9796 0.176577 14.1126C0.12007 14.2482 0.00205663 14.4507 0.00205663 14.4507C0.00205663 14.4507 -0.0319473 14.6707 0.176577 14.5527C0.3791 14.4357 0.446608 14.3502 0.767145 14.3327C1.09368 14.3177 1.67475 14.3177 1.67475 14.3177L1.65075 16.781C1.65075 16.781 1.70725 17.7336 2.14581 17.6986C2.14581 17.6986 2.43334 17.8746 3.04691 16.3439C3.04691 16.3439 3.16492 16.2709 3.16492 16.4444C3.16492 16.618 3.13092 17.6661 3.40745 17.6496C3.40745 17.6496 3.74549 17.328 3.74549 17.036C3.74549 16.744 4.06003 15.5543 4.46457 15.1493C4.46457 15.1493 4.20554 17.5801 4.87062 17.6151C4.87062 17.6151 5.12315 17.6981 5.5617 16.8155C5.5617 16.8155 5.63071 16.6975 5.70372 16.8155C5.77023 16.9335 5.90624 17.5456 6.34479 17.5131C6.78984 17.4791 7.45442 16.4774 7.53893 15.0158C7.53893 15.0158 7.50393 14.9292 7.43692 14.9292M12.006 8.65996C11.9329 8.57595 11.9104 8.33192 11.9784 8.23741C12.0185 8.23241 12.075 8.22591 12.114 8.23241V8.38343C12.124 8.49144 12.163 8.85098 12.006 8.65996ZM8.23551 14.3952C8.1675 14.1361 8.30852 13.9966 8.30852 13.9966C8.30852 13.9966 8.33102 14.0521 8.37003 14.1536C8.41153 14.2607 8.28702 14.6037 8.23551 14.3952ZM13.0256 13.0565C12.9806 12.858 12.9301 12.8415 12.9806 12.634C13.0221 12.4654 12.9706 12.3234 12.9921 12.1439C13.0261 11.8624 12.9596 11.5923 12.9706 11.3103C12.9756 11.1468 12.9531 10.9998 12.9591 10.8542C12.9641 10.6632 12.9591 10.4607 12.9416 10.2747C12.744 10.2132 13.0021 9.92012 13.0256 9.82961C13.0531 9.70009 12.9591 9.53157 12.9301 9.39205C12.9026 9.24503 12.9591 9.13702 12.9641 8.98C12.9701 8.78898 12.8861 8.57545 12.9301 8.41793C12.9526 8.33142 13.0081 8.30492 13.0016 8.1979C12.9976 8.1349 12.9461 8.09589 12.9461 8.02938C12.9461 7.88836 12.9861 7.75785 12.9801 7.60083C12.9751 7.52182 12.9751 7.45531 12.9586 7.3808C12.9521 7.3358 12.8896 7.3358 12.8956 7.27929C12.8956 7.24178 12.9346 7.24178 12.9411 7.21278C12.9586 7.12877 12.9861 7.08326 12.9861 6.99275C12.9796 6.91374 12.9636 6.84173 12.9636 6.76772C12.9586 6.5642 13.1321 6.02513 12.711 6.15915L12.569 6.31117C12.446 6.52119 12.3375 6.68972 12.1805 6.89174C12.08 7.02126 12.1025 7.06526 12.1315 7.22978C12.159 7.42081 12.148 7.43231 11.9959 7.49882C11.8664 7.55532 11.7144 7.63433 11.9394 7.69134C12.0235 7.70884 12.114 7.64583 12.1595 7.74285C12.22 7.85486 12.108 7.84236 12.0465 7.85986C11.9004 7.89387 11.8099 7.87636 11.7199 8.02938C11.6304 8.1864 11.7084 8.25291 11.7589 8.39993C11.8269 8.59595 11.7149 8.77097 11.7374 8.9795C11.7589 9.17703 11.7989 9.31654 11.7864 9.51857C11.7714 9.99263 11.7309 10.4992 11.7864 10.9562C11.8444 11.3938 11.6869 11.8274 11.6869 12.2674C11.6869 12.7075 11.5514 13.116 11.4669 13.5331C11.4214 13.7641 11.3664 13.9781 11.2924 14.1982C11.2244 14.3892 11.1644 14.5687 11.0898 14.7712C11.0168 14.9847 11.0108 15.1208 10.8698 15.2953C10.7303 15.4688 10.6498 15.6033 10.3963 15.5883C10.3638 15.5153 10.2567 15.4753 10.1787 15.4413C9.99172 15.3683 10.0042 15.3798 9.98622 15.1823C9.97472 15.0428 9.96371 14.8342 9.76619 14.8392C9.67568 14.6807 9.8327 14.5792 9.80119 14.4157C9.76619 14.2762 9.62667 14.2097 9.59767 14.0561C9.58117 13.9821 9.60917 13.8976 9.59767 13.8196C9.58117 13.7366 9.54216 13.7016 9.51466 13.6171C9.44065 13.4146 9.44565 13.2515 9.47316 13.055C9.47966 12.981 9.51466 12.869 9.50816 12.801C9.50816 12.717 9.46266 12.694 9.42765 12.615C9.33864 12.3849 9.52466 12.2494 9.46266 12.0594C9.44015 12.0014 9.36064 11.9399 9.33814 11.8724C9.31064 11.7944 9.30564 11.7253 9.32164 11.6473C9.35414 11.4938 9.43965 11.3823 9.40565 11.2073C9.37164 11.0223 9.34914 10.9707 9.38815 10.7962C9.43365 10.6177 9.33264 10.5222 9.33764 10.3527C9.34264 10.2397 9.42315 10.1326 9.43965 10.0261C9.47866 9.67809 9.44465 9.34605 9.52366 9.01801C9.56267 8.84948 9.46215 8.76047 9.47216 8.59195C9.48466 8.46644 9.56267 8.36042 9.59667 8.24641C9.65818 8.00488 9.62567 7.75735 9.72119 7.51632C9.78269 7.3528 9.76519 7.04376 9.8847 6.92575L9.8672 6.75122C9.8737 6.75122 9.91271 6.5817 9.91871 6.5817C10.0182 6.46469 9.97922 6.30167 10.0142 6.15415C10.0632 5.95662 10.1212 5.7496 10.1927 5.56358C10.3173 5.25454 10.4303 4.88749 10.6153 4.61196C10.7788 4.36443 10.8693 4.00338 11.1218 3.82886C11.3029 3.70584 11.4664 3.61033 11.5959 3.80736C11.6799 3.94287 11.6864 4.10039 11.5509 4.1844C11.5509 4.1844 11.4504 4.42093 11.5834 4.35292C11.9179 4.1909 12.0235 3.78335 12.114 3.46931C12.148 3.3288 12.2085 3.10877 12.1415 2.96275C12.046 2.75522 11.7859 2.82173 11.6174 2.88974C11.1849 3.13627 10.8808 3.56983 10.6333 4.07639C10.5603 4.22991 10.3843 4.50994 10.2903 4.64596C10.1722 4.80948 10.1382 4.9615 10.0427 5.13502C9.95871 5.29954 9.8502 5.49057 9.80119 5.66409C9.73819 5.87911 9.60867 6.04263 9.51866 6.33417C9.41665 6.68371 9.33914 6.6057 9.23713 7.05576C9.17062 7.3713 8.91659 7.69184 8.90659 8.01738C8.89409 8.26491 8.71957 8.31042 8.65656 8.67746C8.62506 8.86199 8.54455 9.07101 8.55105 9.23903C8.55755 9.27304 8.59005 9.30204 8.57855 9.34705C8.56205 9.38605 8.50554 9.36455 8.49554 9.39255C8.45404 9.47556 8.45404 9.49206 8.43904 9.59508C8.42653 9.66659 8.41653 9.8026 8.35503 9.7976V10.0161C8.26452 10.2702 8.28702 10.5907 8.20901 10.8382C8.1625 10.9787 8.1525 11.0518 8.18001 11.1988C8.21251 11.3623 8.156 11.3623 8.122 11.5193C8.05549 11.8059 8.04899 12.1944 8.04899 12.5499C8.04899 12.8365 8.089 13.236 8.01649 13.5176C7.98898 13.6231 7.99899 13.6861 8.00999 13.8041C8.01649 13.9121 8.02149 14.0176 8.03249 14.1296C8.04399 14.2602 8.03249 14.3672 8.06149 14.4852C8.083 14.5692 8.162 14.6877 8.08299 14.7442L8.117 14.9807C8.20251 15.5538 8.31302 16.3999 8.58955 16.9855C8.70407 17.238 8.80958 17.5196 9.06861 17.6656C9.28864 17.7836 9.64818 17.7486 9.77769 17.5136C9.67568 17.5136 9.44565 17.5586 9.35514 17.5136C9.25463 17.4621 9.06211 17.2095 9.0006 17.13C8.77558 16.8435 8.62856 16.5619 8.57305 16.2014C8.52905 15.8874 8.43254 15.5603 8.36553 15.2398C8.35403 15.1708 8.26402 14.7722 8.43854 14.8402C8.50504 14.8692 8.53305 15.1433 8.55655 15.2223C8.74607 15.7738 8.80908 16.4339 9.18012 16.9C9.34964 17.1135 9.62017 17.4056 9.8892 17.2935C10.1382 17.193 10.3633 16.8775 10.4988 16.664C10.6448 16.4214 10.7743 16.1349 10.9653 15.9264C11.2369 15.6448 11.5169 15.2893 11.7019 14.9537C11.7434 14.8692 11.9219 14.5202 11.9279 14.8457C11.9279 14.9477 11.8439 14.9687 11.8209 15.0493C11.7919 15.1498 11.8724 15.1613 11.8999 15.2518C11.9389 15.3978 11.8884 15.3638 11.8369 15.5058C11.8094 15.5898 11.8369 15.5483 11.8544 15.6628C11.8819 15.8654 11.8429 16.0514 11.8759 16.2534C11.8884 16.3374 11.8824 16.4004 11.8759 16.4784C11.8659 16.5689 11.8204 16.618 11.8029 16.6985C11.7754 16.8555 11.8819 16.9525 11.8204 17.126V17.2945C11.7464 17.4631 11.8819 17.5751 11.8759 17.7496C11.8719 17.8186 11.8144 17.8916 11.8094 17.9581C11.7979 18.0486 11.8484 18.0986 11.8549 18.1781C11.8664 18.3367 11.7644 18.4322 11.7919 18.5842C11.8034 18.6457 11.8549 18.6747 11.8549 18.7587C11.8549 18.8377 11.7984 18.9157 11.7859 18.9953C11.7584 19.1913 11.7984 19.3998 11.8439 19.5748C11.8894 19.7543 11.7824 19.8449 11.8039 20.0474C11.8154 20.1254 11.8669 20.2009 11.8769 20.2724C11.8944 20.3794 11.8494 20.4144 11.8379 20.5089C11.8314 20.5769 11.8729 20.6445 11.8729 20.696C11.8729 20.7855 11.8214 20.858 11.8214 20.9485C11.8264 21.044 11.9044 21.0715 11.8894 21.172C11.8769 21.235 11.7714 21.2575 11.7714 21.358C11.7714 21.4436 11.8669 21.5001 11.8769 21.5781C11.8894 21.6961 11.7929 21.7691 11.7764 21.8871C11.7649 21.9611 11.7989 22.0341 11.7864 22.1071C11.7764 22.1976 11.7199 22.2417 11.7259 22.3447C11.7309 22.5182 11.8614 22.6762 11.8439 22.8547C11.8214 23.0293 11.6414 23.1763 11.6869 23.3673C11.6984 23.4238 11.7649 23.4753 11.7709 23.5193C11.7859 23.6148 11.7254 23.6438 11.7019 23.7218C11.6239 24.0149 11.6529 24.3804 11.6354 24.691C11.6354 24.7625 11.6694 24.926 11.6694 25C11.7374 24.926 11.7534 24.7585 11.8214 24.5724C11.8554 24.4759 11.9219 24.4644 11.9394 24.3639C11.9884 24.1049 11.9459 23.8284 11.9959 23.5693C12.0515 23.2828 12.069 22.9507 12.08 22.6517C12.085 22.4282 12.085 22.1061 12.187 21.9036C12.3165 22.0721 12.2775 22.4842 12.2085 22.6642C12.1355 22.8537 12.1985 23.3783 12.254 23.5078C12.3945 23.8334 12.401 22.8832 12.401 22.7652C12.401 22.6307 12.513 21.9656 12.627 21.9546C12.676 22.2362 12.6095 22.5227 12.627 22.8157C12.8405 22.7992 12.8961 21.7021 12.9136 21.5101C12.9801 20.84 12.8455 20.2219 12.9641 19.5568V19.2993C12.9756 19.2993 12.9076 18.9887 12.9136 18.8947C12.9301 18.7412 12.9866 18.6007 12.9801 18.4322C12.9701 18.2237 12.828 18.1116 12.8896 17.9031C12.9526 17.6996 12.9801 17.6166 12.9461 17.3966C12.9186 17.217 12.9916 17.0195 12.9461 16.851C12.9236 16.772 12.862 16.7315 12.862 16.6475C12.857 16.5579 12.9301 16.5294 12.9591 16.4624C13.0016 16.3444 12.9866 16.1634 12.9806 16.0339C12.9706 15.8654 12.8861 15.8089 12.9241 15.6453C12.9591 15.5058 12.9806 15.4028 12.9806 15.2518C12.9806 15.1678 12.9806 15.0833 12.9706 14.9978C12.9591 14.9472 12.9076 14.8457 12.9141 14.8117C12.9141 14.7387 12.9806 14.7097 12.9981 14.6547C13.0146 14.5807 13.0021 14.5317 12.9981 14.4512C12.9916 14.3117 12.9806 14.1872 12.9806 14.0466L12.9756 13.9561C12.9871 13.9626 12.9591 13.8566 12.9871 13.8266C12.9806 13.7601 12.9986 13.7711 12.9986 13.7036C12.9921 13.6131 12.9141 13.5191 12.9141 13.4496C12.9076 13.2875 13.0651 13.232 13.0261 13.0575" fill="#767676"/>
<path d="M11.9224 7.13705C11.9224 7.13705 11.8899 7.04154 11.8384 7.05904C11.8384 7.05904 11.7719 7.13705 11.8044 7.17106C11.8384 7.19856 11.9224 7.13705 11.9224 7.13705ZM11.7929 7.44109C11.8494 7.4811 11.974 7.39709 11.974 7.39709C11.974 7.39709 11.9184 7.27907 11.8494 7.29407C11.8494 7.29407 11.7374 7.39709 11.7929 7.44109ZM30.0071 16.3957C29.738 16.8418 29.669 16.3742 29.669 16.3742C29.63 14.2399 30.7901 12.9113 30.7901 12.9113C30.9812 13.8629 30.2826 15.9517 30.0071 16.3952M14.8038 15.7416C14.5513 16.1202 14.5738 15.6586 14.5738 15.6586C14.5338 13.4188 15.3769 12.6132 15.3769 12.6132C15.5479 14.516 15.0578 15.3606 14.8038 15.7416ZM19.2178 2.31345C19.2178 2.31345 19.4703 1.68887 19.4983 2.40996C19.5323 3.13005 18.9353 6.83302 18.3737 7.99816C18.3737 7.99816 18.2442 5.95591 19.2183 2.31345M21.9181 2.28445C21.9181 2.28445 22.1106 1.8749 22.1381 2.31345C22.1731 2.75351 21.8236 5.48835 21.007 7.99816C21.007 7.99816 20.8825 5.70838 21.9181 2.28445ZM23.0392 11.2461C23.4843 11.2061 23.0392 13.4408 22.6407 13.8179C22.6407 13.8179 22.5942 11.2901 23.0392 11.2461ZM33.0979 13.0923C33.0979 13.0923 33.0224 12.9728 32.9724 13.1753C32.9234 13.3838 31.8688 16.4472 31.4252 16.4472C30.9817 16.4472 31.1222 14.0314 31.7017 12.8058C32.2748 11.5826 31.4932 10.8185 31.0872 10.2264C31.0872 10.2264 30.9187 10.0179 30.7666 10.1084C30.6096 10.1924 30.5766 10.3625 30.6096 10.479C30.6436 10.5985 30.6436 10.8185 30.4061 11.3801C30.1711 11.9447 29.8445 12.6857 29.54 13.6539C29.236 14.6215 29.305 15.0505 29.1304 15.5066C28.9609 15.9692 28.6904 16.7167 28.2794 16.6832C28.2794 16.6832 27.9238 16.2042 28.3309 14.3695C28.3309 14.3695 28.5899 13.2268 29.0119 12.5517C29.0119 12.5517 29.2535 12.2637 29.1124 11.8416C28.9769 11.4141 28.7404 10.992 28.3634 10.4125C28.3634 10.4125 28.2288 10.2439 28.0428 10.3104C27.8568 10.3795 27.8568 10.6485 27.8568 10.6485C27.8568 10.6485 27.9423 12.2132 27.6218 13.7554C27.2937 15.3041 26.9567 17.0033 26.4276 17.0033C25.8986 17.0033 26.2921 13.9414 26.6967 13.5519C27.1087 13.1598 26.6967 12.1792 26.5962 11.9947C26.4941 11.8086 26.3096 11.7746 26.2076 11.9597C26.1056 12.1472 25.6445 13.1753 25.324 13.0923C25.324 13.0923 25.1655 13.0583 25.358 12.3997C25.544 11.7421 25.8131 9.22081 25.0475 9.16831C24.4014 9.1308 24.0799 11.7751 24.4354 13.1603C24.4354 13.1603 24.6604 13.6719 24.5069 14.42C24.3499 15.1691 23.7928 17.2618 23.2138 17.2128C22.6342 17.1623 22.5652 15.086 22.6167 14.674C22.6167 14.674 22.8922 14.523 23.2978 13.2663C23.7088 12.0122 23.9438 11.3811 22.8187 9.85039C22.8187 9.85039 22.6677 9.58136 22.4467 9.66587C22.2291 9.74988 22.3472 10.0754 22.3297 10.2274C22.3122 10.381 21.4611 12.6872 21.8346 15.7151C21.8346 15.7151 21.3105 16.8868 21.0515 16.8703C20.7975 16.8528 20.731 15.9702 20.6985 15.4561C20.6635 14.951 20.5239 12.0122 20.7825 9.81639C20.7825 9.81639 22.0156 7.4976 22.5772 2.6635C22.5772 2.6635 22.8122 1.49835 22.1826 0.721754C22.1826 0.721754 22.0421 0.655246 21.9236 0.349708C21.8056 0.0466702 21.4801 -0.0938473 21.31 0.158684C21.1465 0.417716 19.7279 2.31445 19.7279 14.0709C19.7279 14.0709 19.2728 16.8363 18.5577 16.8363C17.8426 16.8363 18.0962 11.4441 18.2257 9.68337C18.2257 9.68337 19.6899 6.24944 19.9814 2.10693C19.9814 2.10693 20.0554 1.40184 19.6333 0.84627C19.6333 0.84627 19.4763 0.721754 19.3178 0.390213C19.1608 0.0571715 18.9698 0.0181666 18.8263 0.00166456C18.6867 -0.0158376 18.6027 0.0921759 18.2882 0.93028C17.9727 1.76888 17.049 6.67199 17.2186 13.5709C17.2186 13.5709 16.6995 16.1437 16.1764 16.1437C15.6534 16.1437 15.8159 13.5259 16.3285 12.1592C16.3285 12.1592 16.542 11.7356 16.277 11.4491C16.277 11.4491 15.4789 10.5655 14.9323 10.1269C14.9323 10.1269 14.5793 9.9344 14.6283 10.381C14.6798 10.8195 14.7123 11.9457 14.1332 13.3358C13.5601 14.726 13.5941 17.6004 14.1847 17.6684C14.1847 17.6684 14.5278 17.9059 15.2093 16.1037C15.2093 16.1037 15.5124 17.7199 15.9569 17.6684C16.3955 17.6179 17.1396 15.6826 17.1911 15.3731C17.1911 15.3731 17.5831 17.7699 18.2822 17.7699C18.9813 17.7699 19.7414 15.6481 19.7414 15.6481C19.7414 15.6481 20.1009 17.7699 20.797 17.7699C21.4931 17.7699 21.9686 16.3622 21.9686 16.3622C21.9686 16.3622 22.3622 17.7524 23.1453 17.7359C23.9268 17.7194 24.4674 16.4137 24.929 14.1499C24.929 14.1499 24.9115 13.8744 25.492 13.9084C25.492 13.9084 25.0145 17.7354 26.2411 17.7519C26.2411 17.7519 26.5957 17.8764 27.3432 16.3957C27.3432 16.3957 27.4788 17.7354 27.9743 17.7354C27.9743 17.7354 28.2283 17.8549 28.9934 16.5312C28.9934 16.5312 29.0939 17.7519 29.5565 17.7694C30.0176 17.7859 30.5756 16.3452 30.5756 16.3452C30.5756 16.3452 30.7491 17.7694 31.2052 17.7519C31.6652 17.7354 32.9219 15.135 33.0969 13.0928" fill="#767676"/>
</svg>
