<svg width="111" height="20" viewBox="0 0 111 20" fill="none" xmlns="http://www.w3.org/2000/svg">
<path d="M27.2983 10.0001C27.2983 12.9839 24.8789 15.3831 21.9152 15.3831C18.9515 15.3831 16.5322 12.9638 16.5322 10.0001C16.5322 7.03636 18.9515 4.617 21.9152 4.617C24.8789 4.617 27.2983 7.03636 27.2983 10.0001Z" fill="#767676"/>
<path d="M6.875 3.85114V8.46807H2.2379V3.85114H0V16.1294H2.2379V10.6052H6.875V16.1294H9.1129V3.85114H6.875Z" fill="#767676"/>
<path d="M33.7298 3.85114V5.98823H36.4516V16.1294H38.6895V5.98823H41.3911V3.85114H33.7298Z" fill="#767676"/>
<path d="M43.5282 3.85114V5.98823H46.25V16.1294H48.4879V5.98823H51.1895V3.85114H43.5282Z" fill="#767676"/>
<path d="M85.625 5.74607C86.6734 5.74607 87.7016 6.16945 88.6694 6.99607L89.0323 7.31865V4.59687L88.9516 4.53639C87.9234 3.95171 86.8548 3.64929 85.7661 3.64929C83.7702 3.64929 82.0968 4.39526 80.8468 5.90736C79.8185 7.11703 79.2944 8.52832 79.2944 10.0807C79.2944 11.8146 79.9194 13.3267 81.1492 14.5364C82.379 15.7662 83.8911 16.3711 85.625 16.3711C86.7742 16.3711 87.9839 16.0686 89.0524 15.4638V12.9033C89.0524 12.9033 87.621 14.234 85.6653 14.234C84.3952 14.234 83.5484 13.8307 82.7419 13.0243C81.9556 12.2178 81.5524 11.2098 81.5524 10.0404C81.5524 8.87107 81.9355 7.84284 82.7419 7.01623C83.5484 6.16945 84.496 5.76623 85.6452 5.76623" fill="#767676"/>
<path d="M109.456 10.1408C108.992 9.55608 108.246 9.05205 107.258 8.66899L106.089 8.18511C105.323 7.88269 104.94 7.47947 104.94 7.01576C104.94 6.65286 105.081 6.3706 105.343 6.14882C105.343 6.14882 105.766 5.78592 106.431 5.78592C107.48 5.78592 107.984 6.83431 107.984 6.83431L108.105 6.97544L108.286 6.89479L109.94 5.92705L109.819 5.72544C109.012 4.33431 107.883 3.62866 106.431 3.62866C105.383 3.62866 104.476 3.95124 103.75 4.57624C103.024 5.2214 102.661 6.02786 102.661 6.97544C102.661 8.38673 103.528 9.45528 105.222 10.1811L106.351 10.665L107.097 11.048L107.581 11.4714L107.823 11.915L107.903 12.4795C107.903 12.9835 107.742 13.4069 107.419 13.7295C107.097 14.0722 106.694 14.2133 106.19 14.2133C105.565 14.2133 105.081 13.9311 104.758 13.3867C104.496 12.923 104.375 12.2174 104.375 12.2174L104.315 12.0158H104.093L102.077 12.4795L102.117 12.6811C102.298 13.8303 102.722 14.7375 103.407 15.3827C104.113 16.048 105.02 16.3706 106.109 16.3706C107.238 16.3706 108.206 15.9875 108.992 15.2214C109.758 14.4956 110.141 13.5279 110.141 12.3585C110.141 11.4916 109.899 10.7658 109.415 10.1609" fill="#767676"/>
<path d="M74.6371 3.85044V5.08028C73.5484 4.11253 72.2782 3.62866 70.8468 3.62866C69.1734 3.62866 67.7218 4.25366 66.5524 5.4835C65.3629 6.7335 64.7581 8.22544 64.7581 9.93915C64.7581 11.8948 65.4234 13.4875 66.7137 14.6972C67.9234 15.7859 69.2742 16.3504 70.7661 16.3504C72.2581 16.3504 73.5685 15.8666 74.6572 14.919V16.1488H76.9153V3.85044H74.6572H74.6371ZM73.5282 12.9835C72.7823 13.8101 71.8952 14.1932 70.7863 14.1932C69.7984 14.1932 68.8911 13.79 68.1653 13.0037C67.379 12.1972 66.996 11.1891 66.996 9.93915C66.996 8.76979 67.3589 7.76173 68.1048 6.95528C68.8306 6.14882 69.7581 5.7456 70.8266 5.7456C71.8952 5.7456 72.8024 6.14882 73.5282 6.95528C74.254 7.74157 74.5968 8.66898 74.6371 9.81818V10.1206C74.6169 11.2496 74.2339 12.1972 73.5282 12.9835Z" fill="#767676"/>
<path d="M21.9153 0C16.4113 0 11.9153 4.47581 11.9153 10C11.9153 15.5242 16.3911 20 21.9153 20C27.4395 20 31.9153 15.5242 31.9153 10C31.9153 4.47581 27.4395 0 21.9153 0ZM21.9153 17.6613C17.6815 17.6613 14.254 14.2137 14.254 10C14.254 5.78629 17.6815 2.33871 21.9153 2.33871C26.1492 2.33871 29.5766 5.76613 29.5766 10C29.5766 14.2339 26.129 17.6613 21.9153 17.6613Z" fill="#767676"/>
<path d="M59.9597 10.9272C60.6452 10.7256 61.2702 10.403 61.7137 9.85869C62.2177 9.21353 62.4798 8.4474 62.4798 7.5603C62.4798 6.41111 62.0766 5.50385 61.25 4.79821C60.5242 4.17321 59.3347 3.87079 57.7218 3.87079H54.1129V16.149H56.3508V11.3103H57.7419L60.9879 16.149H63.7298C63.125 15.3022 60.1814 11.27 59.9597 10.9474M57.9839 9.31434H56.3508V6.00789H58.0444C60.0403 6.00789 60.2621 6.91514 60.2621 7.60063C60.2621 8.32643 60.0403 9.31434 57.9839 9.31434Z" fill="#767676"/>
<path d="M94.2339 11.0084C94.2339 11.0084 94.2944 10.9681 94.3347 10.9479C94.5565 11.2302 98.1653 15.6858 98.5282 16.1294H101.512C100.786 15.2423 96.1895 9.73823 95.9677 9.47614C96.25 9.19388 101.552 3.8713 101.552 3.8713H98.629C98.629 3.8713 94.9194 7.60114 94.254 8.26646V3.85114H92.0161V16.1294H94.254V11.0084H94.2339Z" fill="#767676"/>
</svg>
