<svg width="101" height="20" viewBox="0 0 101 20" fill="none" xmlns="http://www.w3.org/2000/svg">
<path d="M14.1188 18.3018C11.8546 20.5661 8.14755 20.5661 5.88331 18.3018L1.69817 14.1167C-0.566058 11.8525 -0.566058 8.14544 1.69817 5.88121L5.88121 1.69817C8.14544 -0.566058 11.8525 -0.566058 14.1167 1.69817L18.3018 5.88331C20.5661 8.14754 20.5661 11.8546 18.3018 14.1188L14.1167 18.3039L14.1188 18.3018Z" fill="#767676"/>
<path d="M7.51776 16.1471C7.18497 16.1471 6.91326 15.8859 6.90062 15.5552C6.8943 15.3888 6.95117 15.2308 7.0628 15.1108C7.17444 14.9886 7.32819 14.917 7.49248 14.9107C7.8337 14.8938 8.12225 15.1613 8.137 15.5026C8.15174 15.8438 7.88425 16.1323 7.54514 16.1471C7.53671 16.1471 7.52829 16.1471 7.51986 16.1471" fill="white"/>
<path d="M9.76938 4.72438C9.43027 4.72438 9.15856 4.82969 8.93741 5.04874C8.4635 5.52055 8.21496 6.49364 8.23602 7.78899C8.2634 9.38553 8.64253 12.5218 9.89997 14.1352C10.1043 14.3963 10.3233 14.6048 10.5508 14.7565C10.772 14.9018 11.0205 15.0451 11.4081 15.0451C11.5134 15.0451 11.625 15.0345 11.7429 15.0135C12.4633 14.8407 13.3669 14.0383 14.0367 12.9704C14.1378 12.8082 14.3147 12.7113 14.5064 12.7113C14.6117 12.7113 14.7128 12.7408 14.8012 12.7956C14.9276 12.8735 15.014 12.9978 15.0477 13.1431C15.0814 13.2884 15.0561 13.4359 14.9761 13.5623C14.1272 14.9124 13.0067 15.8602 11.9788 16.0982C11.9746 16.0982 11.9641 16.1024 11.9536 16.1045C11.764 16.1382 11.5787 16.1572 11.4038 16.1572C10.7404 16.1572 10.2728 15.9044 9.93999 15.6833C9.61141 15.4663 9.3039 15.1735 9.02587 14.8176C7.25661 12.5449 7.13655 8.28607 7.12813 7.80795C7.10917 6.67478 7.27135 5.13931 8.15809 4.261C8.58987 3.83132 9.13118 3.61438 9.76727 3.61438H9.87048C10.5087 3.61438 11.05 3.83132 11.4818 4.261C12.3664 5.13931 12.5307 6.67478 12.5117 7.80795C12.4928 8.98745 12.2758 11.2748 11.05 13.3263C10.951 13.4927 10.7677 13.5959 10.5719 13.5959C10.4729 13.5959 10.3739 13.5686 10.2875 13.518C10.0242 13.3622 9.93788 13.0188 10.0958 12.7577C10.9531 11.3233 11.368 9.7436 11.3996 7.78899C11.4207 6.49364 11.1721 5.51844 10.6982 5.04874C10.4792 4.82969 10.2075 4.72438 9.86837 4.72438H9.77149H9.76938Z" fill="white"/>
<path d="M35.8048 6.23102C33.0625 6.23102 31.4217 7.92656 31.4217 10.0181C31.4217 12.1096 33.0625 13.8051 35.8048 13.8051C38.5472 13.8051 40.1943 12.1096 40.1943 10.0181C40.1943 7.92656 38.5493 6.23102 35.8048 6.23102ZM35.8048 12.9921C34.4926 12.9921 33.4921 11.6589 33.4921 10.0181C33.4921 8.3773 34.4926 7.04614 35.8048 7.04614C37.117 7.04614 38.1196 8.37519 38.1196 10.0181C38.1196 11.661 37.1212 12.9921 35.8048 12.9921Z" fill="#767676"/>
<path d="M40.5714 7.34925H43.457V13.489H45.6306V7.34925H48.0697V6.51096H40.5714V7.34925Z" fill="#767676"/>
<path d="M48.8616 7.34925H51.2965V13.489H53.4701V7.34925H56.362V6.51096H48.8616V7.34925Z" fill="#767676"/>
<path d="M27.0891 12.2358V6.51096H25.0018V12.6591C25.0018 13.1183 25.3746 13.489 25.8338 13.489H31.1711V12.6507H27.5062C27.2787 12.6507 27.0891 12.4696 27.0891 12.2358Z" fill="#767676"/>
<path d="M57.5435 7.3407V12.659C57.5435 13.1182 57.9184 13.4889 58.3776 13.4889H64.0666V12.6653H60.0521C59.8183 12.6653 59.6329 12.4779 59.6329 12.2483V10.1926H64.0055V9.37324H59.6329V7.7451C59.6329 7.51763 59.8204 7.33017 60.0521 7.33017H64.0666V6.50662H58.3755C57.9184 6.50662 57.5456 6.87522 57.5456 7.33649" fill="#767676"/>
<path d="M100.172 8.17105V6.50921H98.384V4.54407L95.9007 4.53775V6.51132H94.3126C93.0762 6.51132 92.3643 7.02946 91.9999 7.42333V6.51553H89.4766V8.39431C89.4787 8.55439 89.4787 8.72078 89.4787 8.90192V9.34845L89.4766 13.759H91.9978V10.1046C91.9978 10.1046 91.9978 10.0877 91.9978 10.0793C91.9978 9.89818 92.0126 9.74021 92.0442 9.5991C92.0442 9.5991 92.3875 8.17737 94.3105 8.17737H95.8986V11.1556C95.8986 12.1772 96.1324 12.8743 96.6 13.304C96.9644 13.6284 97.5352 13.8622 98.2239 13.9127V13.9169H100.168V12.0824H99.2918C98.6115 12.0529 98.3798 11.6527 98.3798 10.8123V8.17526H100.168L100.172 8.17105Z" fill="#767676"/>
<path d="M88.4087 12.0061V9.47436C88.4087 9.38379 88.4087 9.29532 88.4024 9.20475C88.3118 7.62295 87.4145 6.34656 84.8428 6.34656C83.3621 6.34656 82.2416 6.71726 81.6771 6.9995L82.1426 8.43386C82.6755 8.15584 83.558 7.90308 84.3921 7.90308C85.6432 7.90308 85.877 8.45071 85.877 8.83616V8.92462C82.9956 8.92462 81.0916 9.81557 81.0916 11.6965C81.0916 12.8507 82.0752 13.9207 83.7244 13.9207C84.6301 13.9207 85.4136 13.6469 85.9486 13.1414V13.748H88.4129V12.4379C88.4087 12.2967 88.4066 12.1535 88.4066 12.0103M85.9591 11.0646C85.9591 11.1994 85.9402 11.33 85.9086 11.45C85.7422 11.9113 85.2051 12.282 84.5858 12.282C84.0193 12.282 83.5854 11.9998 83.5854 11.4205C83.5854 10.557 84.6195 10.2768 85.9591 10.2768V11.0625V11.0646Z" fill="#767676"/>
<path d="M79.2001 4.53992H79.0464H76.3483L74.3305 10.0794L72.4264 4.53992H72.2642H72.2158H69.5724L68.2665 13.7506H70.1474H70.2991L71.0952 8.25325L72.9761 13.7506H73.1383H74.6738H74.836L76.8474 8.1669L77.6204 13.7506H77.7742H80.2954H80.4471L79.2001 4.53992Z" fill="#767676"/>
</svg>
