<svg width="56" height="20" viewBox="0 0 56 20" fill="none" xmlns="http://www.w3.org/2000/svg">
<g clip-path="url(#clip0_265_569)">
<path d="M28.516 10.9492H27.4145L23.3836 19.8474H24.7134L27.9524 12.603L31.1696 19.8474H32.541L28.516 10.9492Z" fill="#767676"/>
<path d="M54.7536 11.0063V17.5539L49.6133 11.0063H48.48V19.8469H49.7284V13.1445L55.0037 19.8469H56V11.0063H54.7536Z" fill="#767676"/>
<path d="M3.86419 14.842C2.01446 14.443 1.67508 14.0142 1.67508 13.3312C1.67508 12.5768 2.35781 12.0864 3.33428 12.0864C4.16388 12.0864 4.94585 12.3346 5.82308 13.0811L6.56734 12.0864C5.53927 11.2288 4.57669 10.9111 3.35809 10.9111C1.64332 10.9111 0.402891 11.9455 0.402891 13.4067C0.402891 15.0505 1.59569 15.6401 3.38786 16.0332C5.15424 16.4065 5.48568 16.8393 5.48568 17.5143C5.48568 18.3064 4.76921 18.8246 3.74114 18.8246C2.65948 18.8246 1.81202 18.501 0.803798 17.55L0.00198364 18.495C1.16104 19.5611 2.33002 20.0019 3.70343 20.0019C5.5095 20.0019 6.76779 18.9477 6.76779 17.421C6.76779 16.0412 5.90048 15.2848 3.86617 14.844L3.86419 14.842Z" fill="#767676"/>
<path d="M2.58605 2.59673L0.865326 0.0634766H0.504112V4.4788H0.891127V0.796055L2.5404 3.20821H2.61185L4.26708 0.796055V4.4788H4.66998V0.0634766H4.30479L2.58605 2.59673Z" fill="#767676"/>
<path d="M14.6133 2.63445C14.6133 3.61718 14.0992 4.17505 13.2101 4.17505C12.321 4.17505 11.7811 3.60527 11.7811 2.60666V0.0634766H11.3802V2.63445C11.3802 3.81174 12.0729 4.5463 13.1962 4.5463C14.3195 4.5463 15.0102 3.81968 15.0102 2.6007V0.0634766H14.6133V2.63445Z" fill="#767676"/>
<path d="M32.4874 2.43989H34.9782V2.06467H32.4874V0.442671H35.256V0.0634766H32.0865V4.4788H35.2878V4.10358H32.4874V2.43989Z" fill="#767676"/>
<path d="M44.9909 2.63445C44.9909 3.61718 44.4888 4.17505 43.5917 4.17505C42.6946 4.17505 42.1647 3.60527 42.1647 2.60666V0.0634766H41.7618V2.63445C41.7618 3.81174 42.4585 4.5463 43.5838 4.5463C44.7091 4.5463 45.3978 3.81968 45.3978 2.6007V0.0634766H44.9949V2.63445H44.9909Z" fill="#767676"/>
<path d="M55.6308 0.0634766L53.9141 2.59673L52.1993 0.0634766H51.8361V4.4788H52.2152V0.796055L53.8744 3.20821H53.9379L55.5931 0.796055V4.4788H55.998V0.0634766H55.6308Z" fill="#767676"/>
<path d="M23.3697 2.07266C22.3357 1.86222 22.1412 1.57832 22.1412 1.15744C22.1412 0.694858 22.5659 0.369267 23.1613 0.369267C23.6515 0.369267 24.0505 0.518166 24.4593 0.877506L24.7114 0.559857C24.2212 0.152869 23.7806 0 23.1732 0C22.3575 0 21.7363 0.508239 21.7363 1.18721C21.7363 1.86619 22.165 2.23943 23.2268 2.45186C24.239 2.65634 24.4295 2.92039 24.4295 3.3373C24.4295 3.83959 23.9929 4.17113 23.3697 4.17113C22.7465 4.17113 22.3357 3.99841 21.8098 3.51201L21.5478 3.81179C22.1511 4.34981 22.6969 4.54636 23.3519 4.54636C24.2112 4.54636 24.8285 4.054 24.8285 3.30752C24.8285 2.65436 24.3938 2.27913 23.3697 2.07266Z" fill="#767676"/>
</g>
<defs>
<clipPath id="clip0_265_569">
<rect width="56" height="20" fill="white"/>
</clipPath>
</defs>
</svg>
