<svg width="107" height="12" viewBox="0 0 107 12" fill="none" xmlns="http://www.w3.org/2000/svg">
<path d="M14.6463 9.55882L15.9709 0.341614H13.3988L11.7924 11.6028H18.5756L18.8574 9.55882H14.6463Z" fill="#767676"/>
<path d="M22.4633 0.342773L20.8569 11.6025H23.4304L25.0368 0.342773H22.4633Z" fill="#767676"/>
<path d="M34.6813 0.342773L30.976 8.31401L29.7522 0.342773H27.2321L29.3518 11.6025H31.6687L37.1999 0.342773H34.6813Z" fill="#767676"/>
<path d="M9.22339 1.40945C8.51141 0.614404 7.36185 0.0759677 5.95271 0.0596515C2.46844 0.022569 0.633592 2.14517 0.0996038 5.89346V5.90977C-0.18964 7.92409 0.160419 9.49935 1.02815 10.5006C1.73124 11.3134 2.83481 11.7777 4.22763 11.8459C7.70152 12.015 9.70546 9.74706 10.1282 5.93499C10.364 3.81981 10.1074 2.39733 9.22339 1.40945ZM7.45381 5.97504C7.05629 8.76067 6.18559 9.88946 4.54061 9.88946C3.90576 9.88946 3.44742 9.62988 3.12554 9.26054C2.60342 8.6598 2.4714 7.70011 2.7206 5.94834V5.93202C3.11219 3.27099 3.96509 2.01019 5.61007 2.01019C6.24492 2.01019 6.73589 2.19708 7.05629 2.56791C7.57841 3.17012 7.70449 4.2114 7.45381 5.97504Z" fill="#767676"/>
<path d="M39.3418 0.342773L37.7354 11.6025H44.698L44.9665 9.71869H40.5774L41.0476 6.63492H44.9932L45.235 4.73036H41.2894L41.6454 2.22656H45.8001L46.0686 0.342773H39.3418Z" fill="#767676"/>
<path d="M57.1845 7.48989L61.8806 0.295898H59.0698L56.1966 4.89412L54.6466 0.295898H52.0018L54.6139 7.11906L53.9702 11.6431H56.5615L57.1682 7.51807L57.1845 7.48989Z" fill="#767676"/>
<path d="M71.1037 1.36807C70.3828 0.562641 69.2199 0.0167883 67.7915 0.000472036C64.2642 -0.0366104 62.4071 2.11269 61.8642 5.90844L61.8613 5.92476C61.5706 7.96429 61.9251 9.55883 62.8032 10.5734C63.5152 11.3966 64.6336 11.8683 66.0442 11.9366C69.5611 12.1071 71.5903 9.81099 72.0204 5.95146C72.2592 3.80958 71.9996 2.3693 71.1037 1.36807ZM69.3119 5.99002C68.9099 8.80977 68.0274 9.95487 66.3616 9.95487C65.7179 9.95487 65.2551 9.69233 64.9287 9.31706C64.4007 8.70742 64.2657 7.73735 64.5194 5.96332V5.94701C64.9154 3.25186 65.7787 1.97622 67.4444 1.97622C68.0882 1.97622 68.5836 2.16608 68.9084 2.53988C69.4365 3.14951 69.5655 4.20562 69.3104 5.99002" fill="#767676"/>
<path d="M92.9988 0.295898L91.9249 8.04167L89.0918 0.295898H86.41L84.7932 11.6431H87.1857L88.3724 3.65408L91.2485 11.6431H93.7716L95.3899 0.295898H92.9988Z" fill="#767676"/>
<path d="M106.113 7.88236C105.777 10.1681 104.038 12.1691 100.817 11.9599C99.2806 11.8606 98.2734 11.2583 97.5644 10.2942C96.8747 9.35527 96.4831 7.79929 96.8272 5.72119C97.5303 1.45968 99.6588 -0.085911 102.615 0.0431358C104.652 0.132134 105.822 1.09331 106.448 2.90738L104.239 3.64161C104.076 3.06609 103.581 2.05152 102.36 1.95065C100.691 1.81271 99.6648 3.25002 99.2761 5.97484C99.0477 7.57087 98.9201 9.67715 100.96 9.91447C102.361 10.0762 103.423 9.4591 103.906 7.69101C103.984 7.40029 103.993 7.23416 103.993 7.23416H101.531L101.808 5.30439L106.386 5.29994C106.4 5.36669 106.257 6.9019 106.113 7.88384" fill="#767676"/>
<path d="M81.254 0.337238L80.2676 7.32356C80.011 8.75346 79.9976 9.15395 79.3568 9.68794C78.7502 10.1923 77.433 10.1507 76.7848 9.49214C76.2731 8.97151 76.4718 7.8976 76.6113 6.79551L77.4345 0.337238H74.8417L73.9057 7.60391C73.655 9.50994 74.3181 10.5423 75.5744 11.3448C76.5757 11.9856 77.9596 12.076 78.854 11.9529C80.4426 11.7364 81.4898 11.1104 82.1039 10.0513C82.4822 9.3987 82.6572 8.73863 82.8263 7.59501L83.8468 0.335754H81.254V0.337238Z" fill="#767676"/>
</svg>
