<?xml version="1.0" encoding="UTF-8"?>
<svg id="Layer_1" data-name="Layer 1" xmlns="http://www.w3.org/2000/svg" viewBox="0 0 248.88 75.36">
  <defs>
    <style>
      .cls-1 {
        fill: #212121;
      }
    </style>
  </defs>
  <polygon class="cls-1" points="187.43 61.43 236.46 61.43 236.46 55.43 187.43 55.43 187.43 49.18 236.46 49.18 236.46 43.18 187.43 43.18 180.21 43.18 180.21 49.18 180.21 55.43 180.21 61.43 180.21 68.13 180.21 73.48 180.21 74.13 237.87 74.13 237.87 68.13 187.43 68.13 187.43 61.43"/>
  <polygon class="cls-1" points="236.46 14.68 236.46 0 229.2 0 229.2 39.11 236.46 39.11 236.46 20.88 248.88 20.88 248.88 14.68 236.46 14.68"/>
  <path class="cls-1" d="M209.21,36.2v.1h7.26V1.11h-7.26V12.95h-24.89V1.02h-7.22V36.2h32.11Zm-24.89-17.05h24.89v10.85h-24.89v-10.85Z"/>
  <polygon class="cls-1" points="87.24 54.27 119.54 54.27 119.54 75.36 126.97 75.36 126.97 54.27 159.71 54.27 159.71 48.04 87.24 48.04 87.24 54.27"/>
  <polygon class="cls-1" points="146.66 40.8 154.08 40.8 154.08 7.19 154.08 3.36 154.08 .96 92.88 .96 92.88 7.19 146.66 7.19 146.66 40.8"/>
  <polygon class="cls-1" points="39.85 28.03 67.76 28.03 67.76 21.8 13.16 21.8 13.16 7.19 67.76 7.19 67.76 .96 5.73 .96 5.73 3.36 5.73 7.19 5.73 21.8 5.73 23.96 5.73 28.03 32.43 28.03 32.43 35.45 0 35.45 0 41.69 72.29 41.69 72.29 35.45 39.85 35.45 39.85 28.03"/>
  <path class="cls-1" d="M56.93,48.25H15.36c-6.54,0-11.84,5.3-11.84,11.84v2.31c0,6.54,5.3,11.84,11.84,11.84H56.93c6.54,0,11.84-5.3,11.84-11.84v-2.31c0-6.54-5.3-11.84-11.84-11.84Zm4.4,13.86c0,3.34-2.71,6.05-6.05,6.05H17.01c-3.34,0-6.05-2.71-6.05-6.05v-1.72c0-3.34,2.71-6.05,6.05-6.05H55.28c3.34,0,6.05,2.71,6.05,6.05v1.72Z"/>
</svg>